<svg aria-hidden="true" style="position: absolute; width: 0; height: 0; overflow: hidden;" version="1.1" xmlns="http://www.w3.org/2000/svg" xmlns:xlink="http://www.w3.org/1999/xlink">
<defs>
<symbol id="envelope" viewBox="0 0 43 32">
<path d="M38.689 0h-34.687c-2.207 0-4.002 1.796-4.002 4.002v24.014c0 2.207 1.796 4.002 4.002 4.002h34.687c2.207 0 4.002-1.796 4.002-4.002v-24.014c0-2.207-1.796-4.002-4.002-4.002zM38.689 2.668c0.181 0 0.355 0.037 0.512 0.104l-17.856 15.476-17.856-15.476c0.151-0.065 0.327-0.104 0.512-0.104h34.687zM38.689 29.351h-34.687c-0.737 0-1.334-0.597-1.334-1.334v0-22.427l17.802 15.43c0.233 0.203 0.54 0.327 0.875 0.327s0.642-0.124 0.877-0.329l-0.002 0.001 17.802-15.43v22.427c0 0.737-0.597 1.334-1.334 1.334v0z"></path>
</symbol>
</defs>
</svg>
